<svg width="20" height="20" viewBox="0 0 20 20" fill="none" xmlns="http://www.w3.org/2000/svg">
<path d="M5.27208 0.585787C5.64715 0.210714 6.15586 3.27062e-07 6.68629 3.05339e-07L13.3137 3.39266e-08C13.8441 1.22038e-08 14.3528 0.210714 14.7279 0.585787L19.4142 5.27208C19.7893 5.64715 20 6.15586 20 6.68629V13.3137C20 13.8441 19.7893 14.3528 19.4142 14.7279L14.7279 19.4142C14.3528 19.7893 13.8441 20 13.3137 20H6.68629C6.15586 20 5.64715 19.7893 5.27208 19.4142L0.585787 14.7279C0.210714 14.3528 3.27063e-07 13.8441 3.0534e-07 13.3137L3.39266e-08 6.68629C1.22038e-08 6.15586 0.210714 5.64715 0.585787 5.27208L5.27208 0.585787Z" fill="#C0524E"/>
<path d="M5.62563 0.93934C5.90694 0.658035 6.28847 0.5 6.68629 0.5L13.3137 0.5C13.7115 0.5 14.0931 0.658035 14.3744 0.93934L19.0607 5.62563C19.342 5.90694 19.5 6.28847 19.5 6.68629V13.3137C19.5 13.7115 19.342 14.0931 19.0607 14.3744L14.3744 19.0607C14.0931 19.342 13.7115 19.5 13.3137 19.5H6.68629C6.28847 19.5 5.90694 19.342 5.62563 19.0607L0.93934 14.3744C0.658036 14.0931 0.5 13.7115 0.5 13.3137L0.5 6.68629C0.5 6.28847 0.658035 5.90694 0.93934 5.62563L5.62563 0.93934Z" stroke="black" stroke-opacity="0.1"/>
</svg>
