<svg width="15" height="20" viewBox="0 0 15 20" fill="none" xmlns="http://www.w3.org/2000/svg">
<path d="M0 2C0 0.895431 0.895431 0 2 0H3C4.10457 0 5 0.895431 5 2V18C5 19.1046 4.10457 20 3 20H2C0.89543 20 0 19.1046 0 18V2Z" fill="#EF8843"/>
<path d="M10 2C10 0.895431 10.8954 0 12 0H13C14.1046 0 15 0.895431 15 2V18C15 19.1046 14.1046 20 13 20H12C10.8954 20 10 19.1046 10 18V2Z" fill="#EF8843"/>
<path d="M0.5 2C0.5 1.17157 1.17157 0.5 2 0.5H3C3.82843 0.5 4.5 1.17157 4.5 2V18C4.5 18.8284 3.82843 19.5 3 19.5H2C1.17157 19.5 0.5 18.8284 0.5 18V2ZM10.5 2C10.5 1.17157 11.1716 0.5 12 0.5H13C13.8284 0.5 14.5 1.17157 14.5 2V18C14.5 18.8284 13.8284 19.5 13 19.5H12C11.1716 19.5 10.5 18.8284 10.5 18V2Z" stroke="black" stroke-opacity="0.1"/>
</svg>
