<svg width="11" height="20" viewBox="0 0 11 20" fill="none" xmlns="http://www.w3.org/2000/svg">
<path d="M4.08716 13.6842C4.08716 12.2632 4.2091 11.2412 4.45298 10.6184C4.69687 9.99561 5.21407 9.31579 6.00459 8.57895C6.69419 7.94737 7.2198 7.39912 7.58142 6.93421C7.94304 6.4693 8.12385 5.9386 8.12385 5.34211C8.12385 4.62281 7.89258 4.02632 7.43005 3.55263C6.96751 3.07895 6.32416 2.84211 5.5 2.84211C4.6422 2.84211 3.99044 3.11404 3.54472 3.65789C3.09901 4.20175 2.78364 4.75439 2.59862 5.31579L0 4.15789C0.353211 3.03509 1.00076 2.0614 1.94266 1.23684C2.88456 0.412281 4.07034 0 5.5 0C7.26605 0 8.62424 0.513158 9.57454 1.53947C10.5248 2.56579 11 3.79825 11 5.23684C11 6.11404 10.8192 6.86404 10.4576 7.48684C10.0959 8.10965 9.52829 8.81579 8.75459 9.60526C7.93043 10.4298 7.43005 11.057 7.25344 11.4868C7.07683 11.9167 6.98853 12.6491 6.98853 13.6842H4.08716ZM5.5 20C4.94495 20 4.4698 19.7939 4.07454 19.3816C3.67928 18.9693 3.48165 18.4737 3.48165 17.8947C3.48165 17.3158 3.67928 16.8202 4.07454 16.4079C4.4698 15.9956 4.94495 15.7895 5.5 15.7895C6.05505 15.7895 6.5302 15.9956 6.92546 16.4079C7.32072 16.8202 7.51835 17.3158 7.51835 17.8947C7.51835 18.4737 7.32072 18.9693 6.92546 19.3816C6.5302 19.7939 6.05505 20 5.5 20Z" fill="#545454"/>
<path d="M4.59271 13.1842C4.61892 12.0461 4.73668 11.2652 4.91856 10.8007C5.12325 10.278 5.57926 9.65917 6.34399 8.94611C7.04295 8.30585 7.59059 7.7368 7.97609 7.24119C8.40691 6.68731 8.62385 6.04825 8.62385 5.34211C8.62385 4.50466 8.34984 3.77891 7.78778 3.20331C7.20923 2.61082 6.42382 2.34211 5.5 2.34211C4.52864 2.34211 3.71951 2.65582 3.158 3.34096C2.81135 3.76394 2.53231 4.19918 2.32601 4.64693L0.626354 3.8896C0.969973 3.03334 1.51553 2.27529 2.272 1.61305C3.10983 0.879594 4.17315 0.5 5.5 0.5C7.16576 0.5 8.37557 0.980531 9.20766 1.87918C10.0697 2.8102 10.5 3.92024 10.5 5.23684C10.5 6.04501 10.3338 6.70426 10.0252 7.23578C9.69265 7.80847 9.15658 8.48055 8.39911 9.25364C7.5793 10.074 7.00993 10.7639 6.79096 11.2968C6.61 11.7372 6.52056 12.3801 6.49583 13.1842H4.59271ZM5.5 19.5C5.08561 19.5 4.73951 19.3527 4.43547 19.0356C4.13081 18.7178 3.98165 18.3467 3.98165 17.8947C3.98165 17.4428 4.13081 17.0717 4.43547 16.7539C4.73951 16.4368 5.08561 16.2895 5.5 16.2895C5.91439 16.2895 6.26049 16.4368 6.56453 16.7539C6.86919 17.0717 7.01835 17.4428 7.01835 17.8947C7.01835 18.3467 6.86919 18.7178 6.56453 19.0356C6.26049 19.3527 5.91439 19.5 5.5 19.5Z" stroke="black" stroke-opacity="0.1"/>
</svg>
