<svg width="512" height="512" viewBox="0 0 512 512" fill="none" xmlns="http://www.w3.org/2000/svg">
<path d="M421.673 186.764C424.434 186.764 426.673 189.003 426.673 191.764V215.895C426.673 218.656 428.911 220.895 431.673 220.895H455.803C458.565 220.895 460.803 218.656 460.803 215.895V191.764C460.803 189.003 463.042 186.764 465.803 186.764H472.869C475.63 186.764 477.869 189.003 477.869 191.764V215.895C477.869 218.656 480.107 220.895 482.869 220.895H507C509.761 220.895 512 223.133 512 225.895V232.96C512 235.722 509.761 237.96 507 237.96H482.869C480.107 237.96 477.869 240.199 477.869 242.96V267.091C477.869 269.852 480.107 272.091 482.869 272.091H507C509.761 272.091 512 274.33 512 277.091V284.156C512 286.918 509.761 289.156 507 289.156H482.869C480.107 289.156 477.869 291.395 477.869 294.156V318.287C477.869 321.049 475.63 323.287 472.869 323.287H465.803C463.042 323.287 460.803 321.049 460.803 318.287V294.156C460.803 291.395 458.565 289.156 455.803 289.156H431.673C428.911 289.156 426.673 291.395 426.673 294.156V318.287C426.673 321.049 424.434 323.287 421.673 323.287H414.607C411.846 323.287 409.607 321.049 409.607 318.287V294.156C409.607 291.395 407.369 289.156 404.607 289.156H380.477C377.715 289.156 375.477 286.918 375.477 284.156V277.091C375.477 274.33 377.715 272.091 380.477 272.091H404.607C407.369 272.091 409.607 269.852 409.607 267.091V242.96C409.607 240.199 407.369 237.96 404.607 237.96H380.477C377.715 237.96 375.477 235.722 375.477 232.96V225.895C375.477 223.133 377.715 220.895 380.477 220.895H404.607C407.369 220.895 409.607 218.656 409.607 215.895V191.764C409.607 189.003 411.846 186.764 414.607 186.764H421.673ZM460.803 242.96C460.803 240.199 458.565 237.96 455.803 237.96H431.673C428.911 237.96 426.673 240.199 426.673 242.96V267.091C426.673 269.852 428.911 272.091 431.673 272.091H455.803C458.565 272.091 460.803 269.852 460.803 267.091V242.96Z" fill="url(#paint0_linear_783_404)"/>
<path d="M240.65 15.3516C326.086 15.3516 400.741 59.2439 443.418 126.303C446.389 130.971 444.73 137.115 439.935 139.876L352.453 190.247C347.705 192.982 341.673 191.356 338.508 186.883C317.05 156.556 281.882 136.622 242.017 136.176L240.65 136.168C174.47 136.168 120.817 189.819 120.817 255.999C120.817 277.641 126.587 297.928 136.621 315.45C157.277 351.51 196.107 375.831 240.65 375.831C281.841 375.831 317.739 355.765 339.234 324.223C342.369 319.622 348.506 317.91 353.325 320.702L440.512 371.211C445.287 373.977 446.935 380.102 443.978 384.762C401.751 451.301 327.756 495.712 243.33 496.634L240.65 496.648C151.345 496.648 73.3985 448.002 31.8721 375.758C11.5994 340.489 0 299.6 0 255.999C0 123.095 107.74 15.3516 240.65 15.3516Z" fill="url(#paint1_linear_783_404)"/>
<defs>
<linearGradient id="paint0_linear_783_404" x1="511.994" y1="186.764" x2="350.392" y2="278.895" gradientUnits="userSpaceOnUse">
<stop stop-color="#F0B232"/>
<stop offset="1" stop-color="#EF8843"/>
</linearGradient>
<linearGradient id="paint1_linear_783_404" x1="449.136" y1="15.3515" x2="-99.9161" y2="307.466" gradientUnits="userSpaceOnUse">
<stop stop-color="#F0B232"/>
<stop offset="1" stop-color="#EF8843"/>
</linearGradient>
</defs>
</svg>
