<svg width="512" height="512" viewBox="0 0 512 512" fill="none" xmlns="http://www.w3.org/2000/svg">
<path d="M433.713 94.4748C400.074 79.0741 364.562 68.1483 328.083 61.9766C323.092 70.9 318.575 80.0811 314.552 89.4813C275.696 83.6261 236.181 83.6261 197.325 89.4813C193.3 80.082 188.784 70.9011 183.794 61.9766C147.292 68.2004 111.757 79.1522 78.0841 94.5554C11.2351 193.46 -6.88664 289.908 2.17422 384.986C41.3227 413.911 85.141 435.908 131.724 450.023C142.214 435.915 151.495 420.949 159.471 405.282C144.322 399.625 129.701 392.644 115.777 384.422C119.442 381.764 123.026 379.026 126.489 376.368C167.005 395.422 211.226 405.301 255.999 405.301C300.772 405.301 344.993 395.422 385.509 376.368C389.013 379.227 392.597 381.966 396.221 384.422C382.27 392.658 367.622 399.651 352.447 405.323C360.413 420.982 369.695 435.936 380.193 450.023C426.816 435.965 470.668 413.978 509.824 385.026C520.455 274.766 491.662 179.204 433.713 94.4748ZM170.948 326.513C145.698 326.513 124.838 303.599 124.838 275.41C124.838 247.221 144.973 224.106 170.867 224.106C196.761 224.106 217.46 247.221 217.017 275.41C216.574 303.599 196.681 326.513 170.948 326.513ZM341.05 326.513C315.76 326.513 294.981 303.599 294.981 275.41C294.981 247.221 315.116 224.106 341.05 224.106C366.985 224.106 387.522 247.221 387.08 275.41C386.637 303.599 366.783 326.513 341.05 326.513Z" fill="white"/>
</svg>
