<svg width="512" height="512" viewBox="0 0 512 512" fill="none" xmlns="http://www.w3.org/2000/svg">
<path fill-rule="evenodd" clip-rule="evenodd" d="M256.212 4.26611C114.533 4.26611 0 119.644 0 262.382C0 376.48 73.3854 473.061 175.19 507.245C187.919 509.814 192.581 501.691 192.581 494.857C192.581 488.873 192.161 468.362 192.161 446.991C120.89 462.378 106.048 416.222 106.048 416.222C94.594 386.308 77.6229 378.619 77.6229 378.619C54.2957 362.807 79.3221 362.807 79.3221 362.807C105.198 364.517 118.776 389.302 118.776 389.302C141.679 428.615 178.584 417.507 193.431 410.668C195.549 394.001 202.341 382.464 209.552 376.055C152.708 370.071 92.9 347.85 92.9 248.704C92.9 220.5 103.074 197.424 119.196 179.478C116.652 173.069 107.742 146.569 121.744 111.101C121.744 111.101 143.378 104.262 192.156 137.595C213.04 131.945 234.577 129.071 256.212 129.047C277.845 129.047 299.898 132.042 320.262 137.595C369.046 104.262 390.679 111.101 390.679 111.101C404.682 146.569 395.766 173.069 393.223 179.478C409.769 197.424 419.524 220.5 419.524 248.704C419.524 347.85 359.716 369.641 302.447 376.055C311.782 384.173 319.837 399.555 319.837 423.916C319.837 458.529 319.418 486.309 319.418 494.852C319.418 501.691 324.085 509.814 336.808 507.25C438.613 473.056 511.999 376.48 511.999 262.382C512.418 119.644 397.466 4.26611 256.212 4.26611Z" fill="white"/>
</svg>
