<svg width="512" height="512" viewBox="0 0 512 512" fill="none" xmlns="http://www.w3.org/2000/svg">
<path d="M299.575 1.05704C298.627 -1.26232 293.491 0.604002 293.392 3.10703C291.189 58.7137 185.461 97.0188 174.574 147.186C164.649 193.059 233.849 245.984 249.339 257.134C250.664 258.088 251.227 257.458 250.36 256.076C237.82 236.087 228.257 218.271 215.385 186.667C193.951 134.198 334.492 86.5162 299.575 1.05704ZM369.006 80.3279C370.824 79.1578 369.936 76.4475 367.791 76.7193C341.344 80.0695 260.422 95.41 255.559 158.012C252.929 191.363 285.849 208.875 286.806 233.153C287.32 245.942 278.94 257.339 272.93 263.816C271.469 265.39 272.866 267.997 274.908 267.326C286.406 263.547 307.314 253.943 315.501 232.516C328.255 198.925 290.632 176.001 294.458 149.097C297.444 128.155 349.717 92.7439 369.006 80.3279ZM404.139 248.436C394.797 248.003 384.542 250.592 374.791 255.904C372.824 256.976 374.022 260.096 376.262 260.1C395.553 260.14 410.516 273.205 410.516 287.917C410.516 317.719 377.426 346.177 362.653 357.396C360.92 358.713 362.009 361.434 364.143 361.003C385.614 356.662 440.487 340.6 440.487 289.827C440.487 263.798 424.146 249.391 404.139 248.436ZM179.037 249.073C149.465 250.107 90.3996 254.963 90.3996 277.728C90.3996 309.363 227.587 311.869 325.921 292.458C326.201 292.402 326.455 292.296 326.689 292.133C329.241 290.351 345.28 279.115 354.775 271.508C356.39 270.214 355.24 267.875 353.202 268.242C285.702 280.401 148.429 281.945 148.429 270.723C148.429 263.966 167.371 257.08 181.253 252.941C183.557 252.254 183.137 248.961 180.733 249.023C180.179 249.038 179.614 249.054 179.037 249.073ZM165.914 311.86C167.07 310.282 166.174 307.84 164.24 308.141C148.707 310.558 129.936 321.65 129.936 332.492C129.936 356.818 248.307 375.574 337.806 341.63C339.4 341.025 339.579 338.87 338.126 337.981L311.216 321.529C310.698 321.212 310.082 321.135 309.504 321.319C251.695 339.788 149.069 334.848 165.914 311.86ZM182.703 366.96C183.43 365.307 182.476 363.109 180.677 363.277C161.315 365.085 149.066 377.742 149.066 387.256C149.066 418.31 276.465 421.845 330.57 391.44C331.894 390.695 331.893 388.848 330.622 388.018L301.128 368.761C300.547 368.381 299.839 368.309 299.197 368.574C261.77 384.045 173.935 386.908 182.703 366.96ZM111.443 391.714C75.4141 390.997 52.1387 407.315 52.1387 421.006C52.1387 493.839 421.356 490.337 421.356 415.912C421.356 406.636 413.112 401.005 406.818 397.597C405.098 396.666 402.956 398.659 403.266 400.588C413.746 465.725 99.9648 459.333 99.9648 418.459C99.9648 410.694 116.188 402.929 134.42 402.69C136.771 402.659 138.058 398.666 136.012 397.508L128.353 393.174C128.135 393.05 127.896 392.967 127.648 392.93C122.11 392.098 116.51 391.791 111.443 391.714ZM459.835 445.691C460.126 443.876 458.009 442.876 456.631 444.094C401.614 492.733 275.042 511.473 143.536 486.084C141.039 485.602 140.061 488.843 142.471 489.656C278.943 535.666 450.234 505.504 459.835 445.691Z" fill="url(#paint0_linear_783_332)"/>
<defs>
<linearGradient id="paint0_linear_783_332" x1="460.238" y1="-17.7427" x2="-76.3508" y2="217.935" gradientUnits="userSpaceOnUse">
<stop stop-color="#F0B232"/>
<stop offset="1" stop-color="#EF8843"/>
</linearGradient>
</defs>
</svg>
