<svg width="512" height="512" viewBox="0 0 512 512" fill="none" xmlns="http://www.w3.org/2000/svg">
<g clip-path="url(#clip0_767_294)">
<g clip-path="url(#clip1_767_294)">
<path d="M0 10C0 4.47715 4.47715 0 10 0H502C507.523 0 512 4.47715 512 10V502C512 507.523 507.523 512 502 512H10C4.47715 512 0 507.523 0 502V10Z" fill="url(#paint0_linear_767_294)"/>
<path d="M134.624 427.864L164.983 409.491C169.81 406.569 175.99 408.289 179.074 413.015C185.064 422.198 192.059 428.894 204.734 428.894C220.544 428.894 230.514 422.71 230.514 398.654V245.058C230.514 239.535 234.991 235.058 240.514 235.058H268.628C274.151 235.058 278.628 239.535 278.628 245.058V399.334C278.628 449.168 249.416 471.852 206.796 471.852C168.306 471.852 145.964 451.918 134.622 427.86M304.762 422.708L335.495 404.915C340.191 402.195 346.13 403.778 349.425 408.09C359.041 420.672 371.635 429.24 391.368 429.24C411.306 429.24 424.018 419.272 424.018 405.524C424.018 389.028 410.958 383.184 388.962 373.564L376.936 368.404C342.222 353.63 319.196 335.07 319.196 295.89C319.196 259.802 346.69 232.306 389.652 232.306C417.11 232.306 437.644 240.893 452.994 262.786C456.043 267.135 454.545 273.047 450.076 275.917L429.53 289.112C424.679 292.228 418.335 290.482 414.7 286.007C407.944 277.694 400.221 274.24 389.65 274.24C375.558 274.24 366.622 283.176 366.622 294.86C366.622 309.294 375.558 315.14 396.178 324.076L408.206 329.23C449.106 346.76 472.132 364.63 472.132 404.838C472.132 448.146 438.108 471.858 392.398 471.858C347.72 471.858 318.85 450.55 304.76 422.71" fill="url(#paint1_linear_767_294)"/>
</g>
</g>
<defs>
<linearGradient id="paint0_linear_767_294" x1="511.978" y1="-1.71636e-05" x2="-94.0756" y2="345.516" gradientUnits="userSpaceOnUse">
<stop stop-color="#F0B232"/>
<stop offset="1" stop-color="#EF8843"/>
</linearGradient>
<linearGradient id="paint1_linear_767_294" x1="472.118" y1="232.306" x2="150.355" y2="490.758" gradientUnits="userSpaceOnUse">
<stop stop-color="#272727"/>
<stop offset="1" stop-color="#171717"/>
</linearGradient>
<clipPath id="clip0_767_294">
<rect width="512" height="512" fill="white"/>
</clipPath>
<clipPath id="clip1_767_294">
<rect width="512" height="512" fill="white"/>
</clipPath>
</defs>
</svg>
