<svg width="512" height="512" viewBox="0 0 512 512" fill="none" xmlns="http://www.w3.org/2000/svg">
<path d="M303.761 5.09433L322.866 9.33977L338.362 14.8588L350.226 20.8916C350.665 21.1149 351.087 21.3704 351.489 21.6559L359.755 27.5339C360.209 27.8572 360.636 28.218 361.031 28.6124L367.119 34.7007C367.476 35.0577 367.805 35.4412 368.104 35.8479L372.42 41.7167C372.78 42.2074 373.096 42.7299 373.361 43.2779L376.358 49.4592L378.213 55.0233C378.391 55.5584 378.524 56.1076 378.61 56.665L379.33 61.3464L379.667 64.7117C379.725 65.2973 379.732 65.887 379.687 66.4738L379.542 68.3514V181.705L378.542 194.314C378.501 194.822 378.422 195.327 378.305 195.823L375.948 205.795C375.797 206.432 375.585 207.053 375.313 207.648L371.621 215.734C371.383 216.255 371.101 216.755 370.777 217.228L366.223 223.885C365.905 224.35 365.548 224.787 365.156 225.192L359.911 230.612C359.555 230.979 359.172 231.319 358.764 231.628L352.974 236.014C352.573 236.318 352.149 236.591 351.707 236.832L344.942 240.504L337.512 243.476L330.507 245.599L324.139 247.084L318.62 247.933L314.163 248.358H187.436L173.592 249.361C173.058 249.4 172.527 249.482 172.006 249.605L161.151 252.181C160.562 252.321 159.987 252.514 159.432 252.758L150.422 256.722C149.909 256.948 149.417 257.216 148.949 257.524L141.735 262.275C141.212 262.619 140.722 263.012 140.273 263.448L134.46 269.084C134.116 269.418 133.797 269.776 133.504 270.155L128.671 276.42C128.366 276.816 128.09 277.234 127.847 277.672L123.967 284.657L120.783 292.511L118.66 299.94L117.174 306.733L116.325 312.464L115.9 316.922V371.877C115.9 377.4 111.423 381.877 105.9 381.877H69.2745C68.8013 381.877 68.3287 381.844 67.8603 381.777L64.1061 381.24L58.1625 379.754L51.3698 377.207L44.6107 373.731C44.1644 373.502 43.736 373.239 43.3292 372.945L36.9481 368.336C36.5157 368.024 36.109 367.678 35.7319 367.301L28.6567 360.225L21.6927 351.073C21.3828 350.665 21.1047 350.235 20.8607 349.785L14.4345 337.937L8.49088 322.441L4.03317 303.761L1.06136 281.472L0 255.363L1.27363 229.466L4.66998 207.39L9.55898 189.667C9.6958 189.171 9.87069 188.686 10.0821 188.217L16.5572 173.851L23.7319 162.491C24.0427 161.999 24.3959 161.534 24.7874 161.104L32.1269 153.03C32.5016 152.618 32.91 152.238 33.348 151.894L41.027 145.86C41.412 145.558 41.8187 145.284 42.2438 145.041L50.5207 140.312L59.0116 136.915L66.6534 134.793L73.4461 133.731L78.5406 133.519H81.2914C81.721 133.519 82.15 133.554 82.5738 133.625V133.625C82.9976 133.696 83.4265 133.731 83.8562 133.731H247.615C252.481 133.731 256.425 129.787 256.425 124.922V124.922C256.425 120.057 252.481 116.113 247.615 116.113H142.421C136.913 116.113 132.442 111.658 132.421 106.149L132.245 57.7378L131.875 50.8857C131.839 50.2194 131.87 49.5512 131.967 48.891L132.74 43.634C132.835 42.9905 132.992 42.3578 133.209 41.7448L134.874 37.0539C135.102 36.4104 135.396 35.7919 135.75 35.2082L138.252 31.0871C138.634 30.4592 139.083 29.8753 139.592 29.3458L143.554 25.2255C143.939 24.8248 144.357 24.4569 144.804 24.1256L150.094 20.2003C150.506 19.8946 150.941 19.6211 151.395 19.3821L158.779 15.4957L168.119 11.6748L178.945 8.49069L191.257 5.94342L204.842 3.8207L219.914 2.54707L236.259 1.69798L254.09 1.27344L281.048 2.3348L303.761 5.09433ZM171.605 46.0743C170.564 46.7681 169.663 47.6509 168.948 48.6769L166.354 52.3977C165.559 53.5394 165.01 54.8347 164.743 56.2006L163.823 60.9172C163.576 62.182 163.576 63.4826 163.823 64.7474L164.757 69.5354C165.015 70.8552 165.536 72.1095 166.289 73.2234L168.929 77.1252C169.656 78.1999 170.585 79.1229 171.665 79.8426L175.469 82.3791C176.504 83.0688 177.658 83.5595 178.872 83.8261L183.594 84.8625C185.006 85.1726 186.469 85.1726 187.882 84.8625L192.604 83.8261C193.818 83.5595 194.972 83.0688 196.007 82.3791L199.811 79.8426C200.891 79.1229 201.82 78.1999 202.547 77.1252L205.187 73.2234C205.94 72.1095 206.461 70.8552 206.719 69.5354L207.653 64.7474C207.9 63.4826 207.9 62.182 207.653 60.9172L206.733 56.2006C206.466 54.8347 205.917 53.5394 205.122 52.3977L202.528 48.6769C201.813 47.6509 200.912 46.7681 199.871 46.0743L196.007 43.4978C194.972 42.8081 193.818 42.3174 192.604 42.0508L187.882 41.0144C186.469 40.7043 185.006 40.7043 183.594 41.0144L178.872 42.0508C177.658 42.3174 176.504 42.8081 175.469 43.4978L171.605 46.0743ZM447.894 130.972L453.114 132.09C453.596 132.193 454.069 132.332 454.53 132.505L460.63 134.793L467.309 138.227C467.808 138.484 468.286 138.783 468.735 139.12L475.701 144.345L482.771 151.218C483.152 151.588 483.503 151.988 483.82 152.415L490.345 161.176C490.63 161.559 490.887 161.962 491.115 162.381L497.565 174.275L503.509 189.771L507.967 208.451L510.939 230.527L512 256.637L510.726 282.746L507.33 304.822L502.439 322.348C502.304 322.834 502.131 323.309 501.924 323.769L495.443 338.149L488.238 349.557C487.947 350.017 487.619 350.453 487.257 350.86L479.904 359.133C479.509 359.577 479.075 359.986 478.608 360.353L470.973 366.351C470.588 366.654 470.181 366.928 469.756 367.171L461.479 371.9L452.988 375.297L445.347 377.207L438.554 378.269L434.186 378.633C433.702 378.673 433.216 378.678 432.732 378.648L430.063 378.481H264.279C259.472 378.481 255.575 382.377 255.575 387.184V387.184C255.575 391.991 259.472 395.887 264.279 395.887H369.578C375.087 395.887 379.558 400.342 379.578 405.851L379.755 454.474L380.123 461.106C380.16 461.778 380.13 462.451 380.032 463.116L379.26 468.366C379.165 469.009 379.008 469.642 378.791 470.255L377.1 475.019C376.889 475.614 376.622 476.188 376.303 476.732L373.823 480.963C373.392 481.698 372.869 482.374 372.267 482.977L367.867 487.376L361.978 491.936C361.518 492.292 361.028 492.607 360.514 492.878L353.221 496.716L343.881 500.325L333.055 503.509L320.743 506.269L307.158 508.179L292.086 509.665L275.741 510.514L257.91 510.726L230.952 509.877L208.239 506.905L189.134 502.66L173.638 497.353L161.84 491.354C161.357 491.108 160.895 490.824 160.458 490.504L152.179 484.432C151.768 484.131 151.381 483.799 151.021 483.439L144.881 477.299C144.524 476.942 144.195 476.558 143.896 476.152L139.58 470.283C139.22 469.792 138.904 469.27 138.639 468.722L135.642 462.54L133.778 456.948C133.606 456.432 133.476 455.902 133.39 455.365L132.67 450.866L132.333 447.5C132.275 446.915 132.268 446.325 132.313 445.738L132.458 443.861V330.507L133.457 317.713C133.498 317.186 133.581 316.664 133.705 316.151L136.053 306.396C136.203 305.773 136.413 305.166 136.679 304.583L140.379 296.478C140.617 295.957 140.899 295.457 141.223 294.984L145.822 288.261C146.111 287.84 146.431 287.441 146.78 287.069L151.976 281.527C152.407 281.067 152.88 280.649 153.389 280.279L159.629 275.741L167.058 271.496L174.488 268.524L181.493 266.401L187.861 265.128L193.38 264.278L197.837 263.854L200.597 263.642H324.564L338.408 262.638C338.942 262.6 339.473 262.518 339.994 262.394L350.932 259.799C351.466 259.672 351.989 259.502 352.495 259.289L361.416 255.542C362.036 255.282 362.628 254.96 363.183 254.58L370.344 249.69C370.815 249.369 371.257 249.008 371.666 248.611L377.54 242.915C377.884 242.582 378.203 242.224 378.496 241.845L383.329 235.58C383.634 235.184 383.91 234.765 384.153 234.328L388.033 227.343L391.217 219.701L393.34 212.272L394.826 205.479L395.675 199.535L396.1 195.078V140.123C396.1 134.6 400.577 130.123 406.1 130.123H440.464L443.436 130.335L447.894 130.972ZM312.019 432.438C311.05 433.114 310.208 433.955 309.533 434.924L306.878 438.733C306.083 439.874 305.534 441.17 305.267 442.536L304.347 447.252C304.1 448.517 304.1 449.818 304.347 451.082L305.267 455.799C305.534 457.165 306.083 458.46 306.878 459.602L309.533 463.41C310.208 464.379 311.05 465.221 312.019 465.897L315.827 468.551C316.969 469.347 318.264 469.895 319.63 470.162L324.347 471.082C325.612 471.329 326.912 471.329 328.177 471.082L332.894 470.162C334.26 469.895 335.555 469.347 336.697 468.551L340.505 465.897C341.474 465.221 342.316 464.379 342.991 463.411L345.646 459.602C346.441 458.46 346.99 457.165 347.257 455.799L348.177 451.082C348.424 449.818 348.424 448.517 348.177 447.252L347.257 442.536C346.99 441.17 346.441 439.874 345.646 438.733L342.991 434.924C342.316 433.955 341.474 433.114 340.505 432.438L336.697 429.784C335.555 428.988 334.26 428.439 332.894 428.173L328.177 427.252C326.912 427.006 325.612 427.006 324.347 427.252L319.63 428.173C318.264 428.439 316.969 428.988 315.827 429.784L312.019 432.438Z" fill="url(#paint0_linear_760_264)"/>
<defs>
<linearGradient id="paint0_linear_760_264" x1="511.978" y1="1.27342" x2="-92.5889" y2="347.665" gradientUnits="userSpaceOnUse">
<stop stop-color="#F0B232"/>
<stop offset="1" stop-color="#EF8843"/>
</linearGradient>
</defs>
</svg>
