<svg width="1000" height="181" viewBox="0 0 1000 181" fill="none" xmlns="http://www.w3.org/2000/svg">
<path fill-rule="evenodd" clip-rule="evenodd" d="M910.241 143.781V93.0868L938.426 93.0868C952.181 93.0868 963.516 104.333 963.516 118.434C963.516 132.535 952.181 143.781 938.426 143.781L910.241 143.781ZM873.757 74.845V162.023C873.757 172.098 881.924 180.265 891.999 180.265L938.426 180.265C972.534 180.265 1000 152.48 1000 118.434C1000 84.3881 972.534 56.6032 938.426 56.6032L907.99 56.6032C899.855 24.2938 870.606 0.375839 835.771 0.375839C794.642 0.375839 761.3 33.7168 761.3 74.845V162.023C761.3 172.098 769.468 180.265 779.542 180.265C789.617 180.265 797.784 172.098 797.784 162.023V74.845C797.784 53.8662 814.791 36.8595 835.771 36.8595C856.75 36.8595 873.757 53.8662 873.757 74.845Z" fill="url(#paint0_linear_613_46)"/>
<path fill-rule="evenodd" clip-rule="evenodd" d="M136.559 180.75C146.634 180.75 154.801 172.583 154.801 162.508V18.4939C154.801 8.41919 146.634 0.25206 136.559 0.25206C126.484 0.252075 118.317 8.41919 118.317 18.4939L118.317 162.508C118.317 172.583 126.484 180.75 136.559 180.75Z" fill="url(#paint1_linear_613_46)"/>
<path fill-rule="evenodd" clip-rule="evenodd" d="M560.926 177.418C569.16 171.614 571.13 160.233 565.326 151.998L517.994 84.8535V18.4939C517.994 8.41919 509.827 0.252075 499.752 0.25206C489.678 0.25206 481.51 8.41919 481.51 18.4939V85.187L434.412 151.998C428.608 160.232 430.577 171.613 438.812 177.418C447.046 183.222 458.427 181.253 464.232 173.018L499.87 122.465L535.505 173.018C541.31 181.253 552.691 183.223 560.926 177.418Z" fill="url(#paint2_linear_613_46)"/>
<path fill-rule="evenodd" clip-rule="evenodd" d="M5.4938e-06 162.508C7.32507e-06 172.583 8.16728 180.75 18.2421 180.75H83.2193C93.2942 180.75 101.461 172.583 101.461 162.508C101.461 152.433 93.2942 144.266 83.2193 144.266H36.4842L36.4842 108.985H83.2193C93.2942 108.985 101.461 100.818 101.461 90.7434C101.461 80.6688 93.2942 72.5016 83.2193 72.5016H36.4842V18.4939C36.4842 8.41919 28.3169 0.25206 18.2421 0.25206C8.16727 0.252075 0 8.41919 0 18.4939L5.4938e-06 162.508Z" fill="url(#paint3_linear_613_46)"/>
<path fill-rule="evenodd" clip-rule="evenodd" d="M171.656 162.508C171.656 172.583 179.823 180.75 189.898 180.75H254.876C264.95 180.75 273.118 172.583 273.118 162.508C273.118 152.433 264.95 144.266 254.876 144.266H208.14V108.985H254.876C264.95 108.985 273.118 100.818 273.118 90.7434C273.118 80.6688 264.95 72.5016 254.876 72.5016H208.14V36.7357H254.876C264.95 36.7357 273.118 28.5685 273.118 18.4939C273.118 8.41919 264.95 0.25206 254.876 0.25206H189.898C185.06 0.25206 180.42 2.17395 176.999 5.59496C173.578 9.01598 171.656 13.6558 171.656 18.4939V162.508Z" fill="url(#paint4_linear_613_46)"/>
<path fill-rule="evenodd" clip-rule="evenodd" d="M289.973 162.508C289.973 172.583 298.14 180.75 308.215 180.75H360.1C389.992 180.75 414.225 156.518 414.225 126.626C414.225 101.587 397.222 80.5188 374.132 74.3382L410.144 29.9934C416.495 22.1727 415.303 10.6843 407.483 4.33324C399.662 -2.01781 388.173 -0.826401 381.822 6.99429L328.624 72.5016H326.457V18.4939C326.457 8.41919 318.29 0.25206 308.215 0.25206C298.14 0.252075 289.973 8.41919 289.973 18.4939V162.508ZM326.457 108.985V144.266H360.1C369.843 144.266 377.741 136.368 377.741 126.626C377.741 116.883 369.843 108.985 360.1 108.985H326.457Z" fill="url(#paint5_linear_613_46)"/>
<path fill-rule="evenodd" clip-rule="evenodd" d="M612.056 154.375C647.213 189.269 704.028 189.692 739.083 154.737C746.218 147.623 746.234 136.073 739.12 128.939C732.006 121.805 720.456 121.788 713.322 128.902C692.701 149.464 658.817 149.48 637.665 128.389C627.106 117.859 621.826 104.169 621.765 90.5121C621.821 76.8477 627.1 63.1485 637.666 52.6131C658.817 31.5218 692.701 31.5375 713.322 52.0998C720.456 59.2135 732.006 59.1971 739.12 52.0631C746.234 44.9291 746.218 33.3791 739.084 26.2653C704.029 -8.68961 647.215 -8.26671 612.058 26.6253C611.831 26.8302 611.608 27.0418 611.389 27.2601C593.902 44.6969 585.217 67.6294 585.28 90.5195C585.226 113.397 593.912 136.315 611.389 153.742C611.607 153.96 611.83 154.171 612.056 154.375Z" fill="url(#paint6_linear_613_46)"/>
<defs>
<linearGradient id="paint0_linear_613_46" x1="500" y1="180.997" x2="500" y2="0.251468" gradientUnits="userSpaceOnUse">
<stop stop-color="#272727" stop-opacity="0"/>
<stop offset="1" stop-color="#272727" stop-opacity="0.5"/>
</linearGradient>
<linearGradient id="paint1_linear_613_46" x1="500" y1="180.997" x2="500" y2="0.251468" gradientUnits="userSpaceOnUse">
<stop stop-color="#272727" stop-opacity="0"/>
<stop offset="1" stop-color="#272727" stop-opacity="0.5"/>
</linearGradient>
<linearGradient id="paint2_linear_613_46" x1="500" y1="180.997" x2="500" y2="0.251468" gradientUnits="userSpaceOnUse">
<stop stop-color="#272727" stop-opacity="0"/>
<stop offset="1" stop-color="#272727" stop-opacity="0.5"/>
</linearGradient>
<linearGradient id="paint3_linear_613_46" x1="500" y1="180.997" x2="500" y2="0.251468" gradientUnits="userSpaceOnUse">
<stop stop-color="#272727" stop-opacity="0"/>
<stop offset="1" stop-color="#272727" stop-opacity="0.5"/>
</linearGradient>
<linearGradient id="paint4_linear_613_46" x1="500" y1="180.997" x2="500" y2="0.251468" gradientUnits="userSpaceOnUse">
<stop stop-color="#272727" stop-opacity="0"/>
<stop offset="1" stop-color="#272727" stop-opacity="0.5"/>
</linearGradient>
<linearGradient id="paint5_linear_613_46" x1="500" y1="180.997" x2="500" y2="0.251468" gradientUnits="userSpaceOnUse">
<stop stop-color="#272727" stop-opacity="0"/>
<stop offset="1" stop-color="#272727" stop-opacity="0.5"/>
</linearGradient>
<linearGradient id="paint6_linear_613_46" x1="500" y1="180.997" x2="500" y2="0.251468" gradientUnits="userSpaceOnUse">
<stop stop-color="#272727" stop-opacity="0"/>
<stop offset="1" stop-color="#272727" stop-opacity="0.5"/>
</linearGradient>
</defs>
</svg>
