<svg width="1000" height="181" viewBox="0 0 1000 181" fill="none" xmlns="http://www.w3.org/2000/svg">
<path fill-rule="evenodd" clip-rule="evenodd" d="M910.241 143.778V93.0839L938.426 93.0839C952.181 93.0839 963.516 104.33 963.516 118.431C963.516 132.532 952.181 143.779 938.426 143.779L910.241 143.778ZM873.757 74.8421V162.02C873.757 172.095 881.924 180.262 891.999 180.262L938.426 180.262C972.534 180.262 1000 152.477 1000 118.431C1000 84.3852 972.534 56.6003 938.426 56.6003L907.99 56.6003C899.855 24.2909 870.606 0.37291 835.771 0.37291C794.642 0.37291 761.3 33.7139 761.3 74.8421V162.02C761.3 172.095 769.468 180.262 779.542 180.262C789.617 180.262 797.784 172.095 797.784 162.02V74.8421C797.784 53.8632 814.791 36.8565 835.771 36.8565C856.75 36.8565 873.757 53.8633 873.757 74.8421Z" fill="url(#paint0_linear_613_44)"/>
<path fill-rule="evenodd" clip-rule="evenodd" d="M136.559 180.747C146.634 180.747 154.801 172.58 154.801 162.505V18.4909C154.801 8.41626 146.634 0.24913 136.559 0.24913C126.484 0.249146 118.317 8.41626 118.317 18.491L118.317 162.505C118.317 172.58 126.484 180.747 136.559 180.747Z" fill="url(#paint1_linear_613_44)"/>
<path fill-rule="evenodd" clip-rule="evenodd" d="M560.926 177.415C569.16 171.611 571.13 160.23 565.326 151.995L517.994 84.8505V18.491C517.994 8.41626 509.827 0.249146 499.752 0.24913C489.678 0.24913 481.51 8.41626 481.51 18.4909V85.1841L434.412 151.995C428.608 160.229 430.577 171.61 438.812 177.415C447.046 183.22 458.427 181.25 464.232 173.015L499.87 122.462L535.505 173.015C541.31 181.25 552.691 183.22 560.926 177.415Z" fill="url(#paint2_linear_613_44)"/>
<path fill-rule="evenodd" clip-rule="evenodd" d="M5.4938e-06 162.505C7.32507e-06 172.58 8.16728 180.747 18.2421 180.747H83.2193C93.2942 180.747 101.461 172.58 101.461 162.505C101.461 152.431 93.2942 144.263 83.2193 144.263H36.4842L36.4842 108.982H83.2193C93.2942 108.982 101.461 100.815 101.461 90.7405C101.461 80.6658 93.2942 72.4987 83.2193 72.4987H36.4842V18.4909C36.4842 8.41626 28.3169 0.24913 18.2421 0.24913C8.16727 0.249146 0 8.41626 0 18.491L5.4938e-06 162.505Z" fill="url(#paint3_linear_613_44)"/>
<path fill-rule="evenodd" clip-rule="evenodd" d="M171.656 162.505C171.656 172.58 179.823 180.747 189.898 180.747H254.876C264.95 180.747 273.118 172.58 273.118 162.505C273.118 152.431 264.95 144.263 254.876 144.263H208.14V108.982H254.876C264.95 108.982 273.118 100.815 273.118 90.7405C273.118 80.6658 264.95 72.4987 254.876 72.4987H208.14V36.7327H254.876C264.95 36.7327 273.118 28.5656 273.118 18.4909C273.118 8.41626 264.95 0.24913 254.876 0.24913H189.898C185.06 0.24913 180.42 2.17102 176.999 5.59203C173.578 9.01305 171.656 13.6529 171.656 18.491V162.505Z" fill="url(#paint4_linear_613_44)"/>
<path fill-rule="evenodd" clip-rule="evenodd" d="M289.973 162.505C289.973 172.58 298.14 180.747 308.215 180.747H360.1C389.992 180.747 414.225 156.515 414.225 126.623C414.225 101.584 397.222 80.5159 374.132 74.3352L410.144 29.9905C416.495 22.1698 415.303 10.6814 407.483 4.33031C399.662 -2.02074 388.173 -0.82933 381.822 6.99136L328.624 72.4987H326.457V18.4909C326.457 8.41626 318.29 0.24913 308.215 0.24913C298.14 0.249146 289.973 8.41626 289.973 18.491V162.505ZM326.457 108.982V144.263H360.1C369.843 144.263 377.741 136.365 377.741 126.623C377.741 116.88 369.843 108.982 360.1 108.982H326.457Z" fill="url(#paint5_linear_613_44)"/>
<path fill-rule="evenodd" clip-rule="evenodd" d="M612.056 154.372C647.213 189.266 704.028 189.689 739.083 154.734C746.218 147.62 746.234 136.07 739.12 128.936C732.006 121.802 720.456 121.786 713.322 128.899C692.701 149.462 658.817 149.477 637.665 128.386C627.106 117.856 621.826 104.166 621.765 90.5091C621.821 76.8447 627.1 63.1456 637.666 52.6102C658.817 31.5189 692.701 31.5346 713.322 52.0968C720.456 59.2106 732.006 59.1942 739.12 52.0602C746.234 44.9262 746.218 33.3762 739.084 26.2624C704.029 -8.69254 647.215 -8.26964 612.058 26.6224C611.831 26.8273 611.608 27.0389 611.389 27.2572C593.902 44.694 585.217 67.6265 585.28 90.5166C585.226 113.394 593.912 136.312 611.389 153.739C611.607 153.957 611.83 154.168 612.056 154.372Z" fill="url(#paint6_linear_613_44)"/>
<defs>
<linearGradient id="paint0_linear_613_44" x1="500" y1="180.749" x2="500" y2="0.248535" gradientUnits="userSpaceOnUse">
<stop stop-color="#272727" stop-opacity="0.5"/>
<stop offset="1" stop-color="#272727" stop-opacity="0"/>
</linearGradient>
<linearGradient id="paint1_linear_613_44" x1="500" y1="180.749" x2="500" y2="0.248535" gradientUnits="userSpaceOnUse">
<stop stop-color="#272727" stop-opacity="0.5"/>
<stop offset="1" stop-color="#272727" stop-opacity="0"/>
</linearGradient>
<linearGradient id="paint2_linear_613_44" x1="500" y1="180.749" x2="500" y2="0.248535" gradientUnits="userSpaceOnUse">
<stop stop-color="#272727" stop-opacity="0.5"/>
<stop offset="1" stop-color="#272727" stop-opacity="0"/>
</linearGradient>
<linearGradient id="paint3_linear_613_44" x1="500" y1="180.749" x2="500" y2="0.248535" gradientUnits="userSpaceOnUse">
<stop stop-color="#272727" stop-opacity="0.5"/>
<stop offset="1" stop-color="#272727" stop-opacity="0"/>
</linearGradient>
<linearGradient id="paint4_linear_613_44" x1="500" y1="180.749" x2="500" y2="0.248535" gradientUnits="userSpaceOnUse">
<stop stop-color="#272727" stop-opacity="0.5"/>
<stop offset="1" stop-color="#272727" stop-opacity="0"/>
</linearGradient>
<linearGradient id="paint5_linear_613_44" x1="500" y1="180.749" x2="500" y2="0.248535" gradientUnits="userSpaceOnUse">
<stop stop-color="#272727" stop-opacity="0.5"/>
<stop offset="1" stop-color="#272727" stop-opacity="0"/>
</linearGradient>
<linearGradient id="paint6_linear_613_44" x1="500" y1="180.749" x2="500" y2="0.248535" gradientUnits="userSpaceOnUse">
<stop stop-color="#272727" stop-opacity="0.5"/>
<stop offset="1" stop-color="#272727" stop-opacity="0"/>
</linearGradient>
</defs>
</svg>
