<svg width="1000" height="182" viewBox="0 0 1000 182" fill="none" xmlns="http://www.w3.org/2000/svg">
<path fill-rule="evenodd" clip-rule="evenodd" d="M910.241 37.7192V88.4146L938.426 88.4146C952.181 88.4146 963.516 77.1683 963.516 63.0669C963.516 48.9655 952.181 37.7192 938.426 37.7192L910.241 37.7192ZM873.757 106.657V19.4771C873.757 9.40223 881.924 1.23496 891.999 1.23496L938.426 1.23495C972.534 1.23495 1000 29.0203 1000 63.0669C1000 97.1135 972.534 124.899 938.426 124.899L907.99 124.899C899.855 157.209 870.606 181.127 835.771 181.127C794.642 181.127 761.3 147.786 761.3 106.657V19.4771C761.3 9.40223 769.468 1.23496 779.542 1.23496C789.617 1.23496 797.784 9.40223 797.784 19.4771V106.657C797.784 127.636 814.791 144.643 835.771 144.643C856.75 144.643 873.757 127.636 873.757 106.657Z" fill="url(#paint0_linear_613_42)"/>
<path fill-rule="evenodd" clip-rule="evenodd" d="M136.559 0.75005C146.634 0.75005 154.801 8.91732 154.801 18.9922V163.009C154.801 173.084 146.634 181.251 136.559 181.251C126.484 181.251 118.317 173.084 118.317 163.009L118.317 18.9922C118.317 8.91732 126.484 0.75005 136.559 0.75005Z" fill="url(#paint1_linear_613_42)"/>
<path fill-rule="evenodd" clip-rule="evenodd" d="M560.926 4.08204C569.16 9.88663 571.13 21.2677 565.326 29.5023L517.994 96.6481V163.009C517.994 173.084 509.827 181.251 499.752 181.251C489.678 181.251 481.51 173.084 481.51 163.009V96.3146L434.412 29.5026C428.608 21.2681 430.577 9.88704 438.812 4.08227C447.046 -1.72249 458.427 0.247202 464.232 8.48171L499.87 59.0362L535.505 8.48202C541.31 0.247391 552.691 -1.72255 560.926 4.08204Z" fill="url(#paint2_linear_613_42)"/>
<path fill-rule="evenodd" clip-rule="evenodd" d="M5.4938e-06 18.9922C7.32507e-06 8.91732 8.16728 0.75005 18.2421 0.75005H83.2193C93.2942 0.75005 101.461 8.91732 101.461 18.9922C101.461 29.067 93.2942 37.2343 83.2193 37.2343H36.4842L36.4842 72.5159H83.2193C93.2942 72.5159 101.461 80.6832 101.461 90.758C101.461 100.833 93.2942 109 83.2193 109H36.4842V163.009C36.4842 173.084 28.3169 181.251 18.2421 181.251C8.16727 181.251 0 173.084 0 163.009L5.4938e-06 18.9922Z" fill="url(#paint3_linear_613_42)"/>
<path fill-rule="evenodd" clip-rule="evenodd" d="M171.656 18.9922C171.656 8.91732 179.823 0.75005 189.898 0.75005H254.876C264.95 0.75005 273.118 8.91732 273.118 18.9922C273.118 29.067 264.95 37.2343 254.876 37.2343H208.14V72.5159H254.876C264.95 72.5159 273.118 80.6832 273.118 90.758C273.118 100.833 264.95 109 254.876 109H208.14V144.767H254.876C264.95 144.767 273.118 152.934 273.118 163.009C273.118 173.084 264.95 181.251 254.876 181.251H189.898C185.06 181.251 180.42 179.329 176.999 175.908C173.578 172.487 171.656 167.847 171.656 163.009V18.9922Z" fill="url(#paint4_linear_613_42)"/>
<path fill-rule="evenodd" clip-rule="evenodd" d="M289.973 18.9922C289.973 8.91732 298.14 0.75005 308.215 0.75005H360.1C389.992 0.75005 414.225 24.9827 414.225 54.8751C414.225 79.9146 397.222 100.983 374.132 107.164L410.144 151.509C416.495 159.33 415.303 170.819 407.483 177.17C399.662 183.521 388.173 182.329 381.822 174.509L328.624 109H326.457V163.009C326.457 173.084 318.29 181.251 308.215 181.251C298.14 181.251 289.973 173.084 289.973 163.009V18.9922ZM326.457 72.5159V37.2343H360.1C369.843 37.2343 377.741 45.1323 377.741 54.8751C377.741 64.6179 369.843 72.5159 360.1 72.5159H326.457Z" fill="url(#paint5_linear_613_42)"/>
<path fill-rule="evenodd" clip-rule="evenodd" d="M612.056 27.1255C647.213 -7.76882 704.028 -8.19232 739.083 26.7638C746.218 33.8776 746.234 45.4279 739.12 52.562C732.006 59.6961 720.456 59.7125 713.322 52.5986C692.701 32.036 658.817 32.0203 637.665 53.112C627.106 63.6419 621.826 77.3322 621.765 90.9894C621.821 104.654 627.1 118.353 637.666 128.889C658.817 149.981 692.701 149.965 713.322 129.402C720.456 122.289 732.006 122.305 739.12 129.439C746.234 136.573 746.218 148.123 739.084 155.237C704.029 190.193 647.215 189.77 612.058 154.877C611.831 154.672 611.608 154.461 611.389 154.242C593.902 136.805 585.217 113.872 585.28 90.982C585.226 68.1038 593.912 45.1862 611.389 27.7586C611.607 27.5409 611.83 27.3298 612.056 27.1255Z" fill="url(#paint6_linear_613_42)"/>
<defs>
<linearGradient id="paint0_linear_613_42" x1="999.957" y1="0.748529" x2="857.058" y2="452.088" gradientUnits="userSpaceOnUse">
<stop stop-color="#F0B232"/>
<stop offset="1" stop-color="#EF8843"/>
</linearGradient>
<linearGradient id="paint1_linear_613_42" x1="999.957" y1="0.748529" x2="857.058" y2="452.088" gradientUnits="userSpaceOnUse">
<stop stop-color="#F0B232"/>
<stop offset="1" stop-color="#EF8843"/>
</linearGradient>
<linearGradient id="paint2_linear_613_42" x1="999.957" y1="0.748529" x2="857.058" y2="452.088" gradientUnits="userSpaceOnUse">
<stop stop-color="#F0B232"/>
<stop offset="1" stop-color="#EF8843"/>
</linearGradient>
<linearGradient id="paint3_linear_613_42" x1="999.957" y1="0.748529" x2="857.058" y2="452.088" gradientUnits="userSpaceOnUse">
<stop stop-color="#F0B232"/>
<stop offset="1" stop-color="#EF8843"/>
</linearGradient>
<linearGradient id="paint4_linear_613_42" x1="999.957" y1="0.748529" x2="857.058" y2="452.088" gradientUnits="userSpaceOnUse">
<stop stop-color="#F0B232"/>
<stop offset="1" stop-color="#EF8843"/>
</linearGradient>
<linearGradient id="paint5_linear_613_42" x1="999.957" y1="0.748529" x2="857.058" y2="452.088" gradientUnits="userSpaceOnUse">
<stop stop-color="#F0B232"/>
<stop offset="1" stop-color="#EF8843"/>
</linearGradient>
<linearGradient id="paint6_linear_613_42" x1="999.957" y1="0.748529" x2="857.058" y2="452.088" gradientUnits="userSpaceOnUse">
<stop stop-color="#F0B232"/>
<stop offset="1" stop-color="#EF8843"/>
</linearGradient>
</defs>
</svg>
