<svg width="33" height="75" viewBox="0 0 33 75" fill="none" xmlns="http://www.w3.org/2000/svg">
<style>
    @keyframes scroll_down {
        0% {
            transform: translateY(0px);
            opacity: 0%;
        }
        25% {
            opacity: 100%;
        }
        75% {
            opacity: 100%;
        }
        100% {
            transform: translateY(20px);
            opacity: 0%;
        }
    }

    .wheel_scroll {
        animation: scroll_down 2s ease-in-out infinite;
    }
</style>
<path fill-rule="evenodd" clip-rule="evenodd" d="M29.4113 32.8942V16.4858C29.4113 9.34725 23.6243 3.56031 16.4858 3.56031C9.34725 3.56031 3.56031 9.34725 3.56031 16.4858V32.8942C3.56031 40.0327 9.34725 45.8197 16.4858 45.8197C23.6243 45.8197 29.4113 40.0327 29.4113 32.8942ZM16.4858 0C7.38094 0 0 7.38094 0 16.4858V32.8942C0 41.9991 7.38094 49.38 16.4858 49.38C25.5907 49.38 32.9716 41.9991 32.9716 32.8942V16.4858C32.9716 7.38094 25.5907 0 16.4858 0Z" fill="#363636"/>
<path class="wheel_scroll" fill-rule="evenodd" clip-rule="evenodd" d="M16.4872 10.0616C17.4703 10.0616 18.2673 10.8586 18.2673 11.8418V17.2597C18.2673 18.2428 17.4703 19.0398 16.4872 19.0398C15.504 19.0398 14.707 18.2428 14.707 17.2597V11.8418C14.707 10.8586 15.504 10.0616 16.4872 10.0616Z" fill="#363636"/>
<path fill-rule="evenodd" clip-rule="evenodd" d="M7.83779 54.5451C8.53298 53.8499 9.66011 53.8499 10.3553 54.5451L16.5147 60.7043L22.6738 54.5451C23.369 53.8499 24.4961 53.8499 25.1913 54.5451C25.8865 55.2403 25.8865 56.3674 25.1913 57.0626L17.8829 64.3711C17.8829 64.3711 17.8829 64.3711 17.8829 64.3711C17.1273 65.1268 15.9021 65.1268 15.1465 64.3711C15.1465 64.3711 15.1465 64.3711 15.1465 64.3711L7.83781 57.0626C7.14261 56.3674 7.1426 55.2403 7.83779 54.5451Z" fill="#363636"/>
<path fill-rule="evenodd" clip-rule="evenodd" d="M7.83779 64.6072C8.53298 63.912 9.66011 63.912 10.3553 64.6072L16.5147 70.7664L22.6738 64.6072C23.369 63.912 24.4961 63.912 25.1913 64.6072C25.8865 65.3024 25.8865 66.4295 25.1913 67.1247L17.8829 74.4332C17.8829 74.4332 17.8829 74.4332 17.8829 74.4332C17.1273 75.1889 15.9021 75.1889 15.1465 74.4333C15.1465 74.4333 15.1465 74.4333 15.1465 74.4333L7.83781 67.1247C7.14261 66.4296 7.1426 65.3024 7.83779 64.6072Z" fill="#363636"/>
</svg>
